<svg width="46" height="23" viewBox="0 0 46 23" fill="none" xmlns="http://www.w3.org/2000/svg">
<g id="Layer_1" clip-path="url(#clip0_19_196)">
<path id="Vector" fill-rule="evenodd" clip-rule="evenodd" d="M11.79 4.67C11.79 7.27 9.78999 9.34 7.26999 9.34C4.74999 9.34 2.73999 7.27 2.73999 4.67C2.73999 2.07 4.74999 0 7.26999 0C9.78999 0 11.79 2.08 11.79 4.67Z" fill="white"/>
<path id="Vector_2" fill-rule="evenodd" clip-rule="evenodd" d="M27.96 10.01C27.96 12.98 25.74 15.42 22.85 15.42C19.96 15.42 17.66 12.97 17.66 10.01C17.66 7.05 20.03 4.6 22.85 4.6C25.67 4.6 27.96 7.05 27.96 10.01Z" fill="white"/>
<path id="Vector_3" fill-rule="evenodd" clip-rule="evenodd" d="M14.54 19.73V22.92H31.15V19.73C31.15 18.4 30.18 17.36 29 17.36H16.77C15.51 17.36 14.54 18.4 14.54 19.73Z" fill="white"/>
<path id="Vector_4" fill-rule="evenodd" clip-rule="evenodd" d="M31.15 13.42C31.15 12.08 32.19 11.05 33.38 11.05H43.39C44.65 11.05 45.61 12.09 45.61 13.42V22.91H34.49V19.65C34.49 17.28 33.16 15.2 31.15 14.31V13.42Z" fill="white"/>
<path id="Vector_5" fill-rule="evenodd" clip-rule="evenodd" d="M42.94 4.67C42.94 7.27 40.94 9.34 38.41 9.34C35.88 9.34 33.89 7.27 33.89 4.67C33.89 2.07 35.96 0 38.41 0C40.86 0 42.94 2.08 42.94 4.67Z" fill="white"/>
<path id="Vector_6" fill-rule="evenodd" clip-rule="evenodd" d="M11.13 22.91V19.72C11.13 17.27 12.54 15.27 14.54 14.38V13.42C14.54 12.16 13.5 11.12 12.32 11.12H2.23C0.97 11.12 0 12.16 0 13.42V22.91H11.13Z" fill="white"/>
</g>
<defs>
<clipPath id="clip0_19_196">
<rect width="45.61" height="22.91" fill="white"/>
</clipPath>
</defs>
</svg>
