<svg width="44" height="32" viewBox="0 0 44 32" fill="none" xmlns="http://www.w3.org/2000/svg">
<g clip-path="url(#clip0_19_164)">
<path fill-rule="evenodd" clip-rule="evenodd" d="M0 0H40.3V20.68L37.96 18.46C38.31 17.76 38.55 17.06 38.66 16.24C38.89 15.54 38.89 14.61 38.78 13.79C38.66 12.86 38.43 12.04 38.08 11.22H37.96V11.1V10.98H37.85V10.86V10.74H37.73V10.62V10.5H37.62V10.38H37.5V2.92H2.68V22.78H35.27L38.19 25.7H0V0Z" fill="#316FB7"/>
<path d="M42.99 23.95L37.5 18.46C38.32 17.06 38.67 15.42 38.44 13.9C38.32 12.15 37.5 10.63 36.22 9.34001C34.82 7.82001 32.83 7.01001 30.85 7.01001C28.87 7.01001 26.88 7.83001 25.36 9.34001C23.84 10.86 23.14 12.84 23.14 14.71C23.14 16.69 23.84 18.68 25.36 20.2C26.64 21.48 28.16 22.18 29.92 22.42C31.55 22.54 33.19 22.3 34.59 21.49L40.08 26.98L40.31 27.21L40.54 26.98L42.99 24.41L43.22 24.18L42.99 23.95ZM34.34 18.23C33.4 19.28 32.12 19.75 30.84 19.75C29.56 19.75 28.27 19.28 27.33 18.23C26.4 17.29 25.81 16.01 25.81 14.72C25.81 13.55 26.39 12.15 27.33 11.22C28.26 10.29 29.55 9.82001 30.84 9.82001C32.13 9.82001 33.41 10.29 34.34 11.22C35.27 12.15 35.74 13.55 35.74 14.72C35.74 16 35.27 17.29 34.34 18.23Z" fill="#316FB7"/>
<path fill-rule="evenodd" clip-rule="evenodd" d="M19.27 21.03H21.96V6.66H19.27V21.03Z" fill="#316FB7"/>
<path fill-rule="evenodd" clip-rule="evenodd" d="M14.83 21.03H17.4V12.38H14.83V21.03Z" fill="#316FB7"/>
<path fill-rule="evenodd" clip-rule="evenodd" d="M10.39 21.03H13.08V15.54H10.39V21.03Z" fill="#316FB7"/>
<path fill-rule="evenodd" clip-rule="evenodd" d="M5.95996 21.03H8.51996V7.35999H5.95996V21.03Z" fill="#316FB7"/>
<path d="M34.2199 28.15H6.06995V31.42H34.2199V28.15Z" fill="#316FB7"/>
</g>
<defs>
<clipPath id="clip0_19_164">
<rect width="43.22" height="31.43" fill="white"/>
</clipPath>
</defs>
</svg>
