<svg width="35" height="33" viewBox="0 0 35 33" fill="none" xmlns="http://www.w3.org/2000/svg">
<g clip-path="url(#clip0_20_248)">
<path d="M13.18 0.0400085C5.91 0.0400085 0 5.95001 0 13.22C0 20.49 5.91 26.4 13.18 26.4C20.45 26.4 26.36 20.49 26.36 13.22C26.36 5.95001 20.45 0.0400085 13.18 0.0400085ZM21.67 19.93L20.47 18.73L18.69 20.51L19.89 21.71C18.31 22.96 16.43 23.74 14.44 23.97V22.27H11.93V23.97C9.93 23.74 8.06 22.96 6.48 21.71L7.68 20.51L5.9 18.73L4.7 19.93C3.45 18.35 2.67 16.47 2.44 14.48H4.14V11.97H2.44C2.67 9.97001 3.45 8.10001 4.7 6.52001L5.9 7.72001L7.68 5.94001L6.48 4.74001C8.06 3.49001 9.94 2.71001 11.93 2.48001V4.18001H14.44V2.48001C16.44 2.71001 18.31 3.49001 19.89 4.74001L18.69 5.94001L20.47 7.72001L21.67 6.52001C22.92 8.10001 23.7 9.98001 23.93 11.97H22.23V14.48H23.93C23.7 16.48 22.92 18.35 21.67 19.93Z" fill="white"/>
<path d="M14.24 11.11L13.85 6.39001H12.51L12.12 11.11C11.32 11.51 10.81 12.33 10.81 13.22C10.81 13.47 10.85 13.72 10.94 13.98L8.25 17.2L9.2 18.15L12.43 15.46C12.68 15.55 12.94 15.59 13.19 15.59C14.5 15.59 15.56 14.53 15.56 13.22C15.56 12.33 15.05 11.51 14.25 11.11H14.24ZM13.18 14.02C12.74 14.02 12.38 13.66 12.38 13.22C12.38 12.78 12.74 12.42 13.18 12.42C13.62 12.42 13.98 12.78 13.98 13.22C13.98 13.66 13.62 14.02 13.18 14.02Z" fill="white"/>
<path d="M19.8899 31.55C20.6199 31.28 21.2699 31 21.8799 30.69C23.0699 30.09 24.2199 29.34 25.2899 28.46C25.8199 28.02 26.3199 27.56 26.7899 27.08C30.2099 23.58 32.0999 18.94 32.0999 14.03V7.62H34.7999C34.7999 7.62 34.8699 7.62 34.8999 7.56C34.9299 7.5 34.8999 7.46 34.8999 7.44L30.6399 0.06C30.6399 0.06 30.6099 0 30.5399 0C30.4699 0 30.4499 0.04 30.4399 0.06L26.1699 7.45C26.1699 7.45 26.1399 7.51 26.1699 7.57C26.1999 7.63 26.2499 7.63 26.2699 7.63H28.9699V14.04C28.9699 18.12 27.3999 21.98 24.5599 24.89C24.1199 25.33 23.7199 25.7 23.3099 26.04C23.0999 26.21 22.8799 26.38 22.6499 26.55C19.9899 28.52 16.8099 29.56 13.4599 29.56C11.4199 29.56 9.43992 29.18 7.59992 28.42C6.96992 28.16 6.40992 28.17 6.01992 28.43C5.62992 28.69 5.41992 29.2 5.41992 29.86C5.41992 30.52 5.78992 31.06 6.34992 31.29C6.57992 31.38 6.80992 31.47 7.04992 31.56C9.10992 32.32 11.2699 32.7 13.4699 32.7C15.6699 32.7 17.8799 32.32 19.9099 31.56L19.8899 31.55Z" fill="white"/>
</g>
<defs>
<clipPath id="clip0_20_248">
<rect width="34.92" height="32.69" fill="white"/>
</clipPath>
</defs>
</svg>
