<svg width="34" height="32" viewBox="0 0 34 32" fill="none" xmlns="http://www.w3.org/2000/svg">
<g clip-path="url(#clip0_20_225)">
<path d="M20.84 6.01999C13.87 6.01999 8.20996 11.69 8.20996 18.65C8.20996 25.61 13.88 31.28 20.84 31.28C27.8 31.28 33.47 25.61 33.47 18.65C33.47 11.69 27.8 6.01999 20.84 6.01999ZM28.97 25.09L27.82 23.94L26.12 25.64L27.27 26.79C25.76 27.99 23.96 28.74 22.04 28.96V27.33H19.63V28.96C17.72 28.74 15.92 27.99 14.4 26.79L15.55 25.64L13.85 23.94L12.7 25.09C11.5 23.58 10.75 21.78 10.53 19.86H12.16V17.45H10.53C10.75 15.54 11.5 13.74 12.7 12.22L13.85 13.37L15.55 11.67L14.4 10.52C15.91 9.31999 17.71 8.56999 19.63 8.34999V9.97999H22.04V8.34999C23.95 8.56999 25.75 9.31999 27.27 10.52L26.12 11.67L27.82 13.37L28.97 12.22C30.17 13.73 30.92 15.53 31.14 17.45H29.51V19.86H31.14C30.92 21.77 30.17 23.57 28.97 25.09Z" fill="white"/>
<path d="M21.85 16.63L21.48 12.1H20.2L19.82 16.63C19.06 17.02 18.57 17.8 18.57 18.65C18.57 18.89 18.61 19.13 18.69 19.37L16.11 22.46L17.02 23.37L20.11 20.79C20.35 20.87 20.59 20.91 20.83 20.91C22.08 20.91 23.1 19.89 23.1 18.64C23.1 17.79 22.61 17 21.85 16.62V16.63ZM20.84 19.43C20.42 19.43 20.07 19.09 20.07 18.66C20.07 18.23 20.41 17.89 20.84 17.89C21.27 17.89 21.61 18.23 21.61 18.66C21.61 19.09 21.27 19.43 20.84 19.43Z" fill="white"/>
<path d="M4.30005 31.28L8.39005 24.2C8.39005 24.19 8.42005 24.15 8.39005 24.09C8.36005 24.04 8.31005 24.04 8.30005 24.04H5.71005V17.89C5.71005 13.98 7.21005 10.28 9.94005 7.49001C10.36 7.07001 10.75 6.71001 11.14 6.39001C11.34 6.22001 11.55 6.06001 11.77 5.90001C14.32 4.02001 17.37 3.02001 20.58 3.02001C22.54 3.02001 24.43 3.39001 26.2 4.11001C26.8 4.35001 27.34 4.35001 27.72 4.10001C28.09 3.85001 28.29 3.37001 28.29 2.73001C28.29 2.09001 27.93 1.58001 27.4 1.36001C27.18 1.27001 26.96 1.18001 26.73 1.10001C24.75 0.38001 22.68 0.0100098 20.58 0.0100098C18.48 0.0100098 16.35 0.38001 14.41 1.10001C13.71 1.36001 13.09 1.63001 12.5 1.93001C11.36 2.50001 10.26 3.22001 9.23005 4.06001C8.73005 4.48001 8.24005 4.93001 7.79005 5.38001C4.51005 8.74001 2.70005 13.18 2.70005 17.89V24.04H0.110047C0.110047 24.04 0.0500472 24.04 0.0200472 24.09C-0.0099528 24.15 0.0200472 24.19 0.0200472 24.2L4.11005 31.28C4.11005 31.28 4.14005 31.33 4.20005 31.33C4.26005 31.33 4.29005 31.29 4.29005 31.28H4.30005Z" fill="white"/>
</g>
<defs>
<clipPath id="clip0_20_225">
<rect width="33.47" height="31.33" fill="white"/>
</clipPath>
</defs>
</svg>
