<?xml version="1.0" encoding="UTF-8"?>
<svg id="Layer_1" xmlns="http://www.w3.org/2000/svg" version="1.1" viewBox="0 0 50 50">
  <!-- Generator: Adobe Illustrator 29.8.2, SVG Export Plug-In . SVG Version: 2.1.1 Build 3)  -->
  <defs>
    <style>
      .st0 {
        fill: #fff;
      }
    </style>
  </defs>
  <path class="st0" d="M31.15,24.58h-4.9l-2.99-4.12c-.1-.14-.21-.26-.34-.36,0,0,0,0,0,0-.01,0-.02-.02-.04-.03,0,0,0,0,0,0-.01-.01-.03-.02-.04-.03,0,0,0,0-.01,0-.01,0-.02-.01-.03-.02,0,0,0,0-.01,0-.01,0-.02-.02-.04-.02,0,0,0,0,0,0-.01,0-.03-.02-.04-.03,0,0,0,0-.01,0-.01,0-.02-.01-.04-.02,0,0,0,0-.01,0-.03-.02-.06-.03-.1-.05,0,0,0,0,0,0-.29-.13-.63-.18-.96-.13,0,0,0,0,0,0-.02,0-.03,0-.05,0,0,0,0,0,0,0-.02,0-.04,0-.05.01,0,0,0,0-.01,0-.01,0-.02,0-.03,0l-6.93,1.71c-.45.11-.83.39-1.07.79l-2.42,3.96c-.5.83-.24,1.9.58,2.41.29.17.6.26.91.26.59,0,1.17-.3,1.5-.84l2.05-3.35,2.86-.71-2.22,5.34-2.8,4.6h-6.57c-.97,0-1.75.78-1.75,1.75s.78,1.75,1.75,1.75h7.55c.61,0,1.18-.32,1.5-.84l2.23-3.65,2.96,2.96v6.07c0,.97.78,1.75,1.75,1.75s1.75-.78,1.75-1.75v-6.79c0-.46-.18-.91-.51-1.24l-4.22-4.22,1.95-4.7,1.7,2.34c.33.45.86.72,1.42.72h5.79c.97,0,1.75-.78,1.75-1.75s-.78-1.75-1.75-1.75Z"/>
  <circle class="st0" cx="23.8" cy="15.56" r="3.58"/>
  <g>
    <polygon class="st0" points="18.6 19.64 18.6 8.15 27.22 8.15 27.22 7.35 17.8 7.35 17.8 19.84 18.6 19.64"/>
    <path class="st0" d="M20.91,42.95h-2.31v-8.5l-.8,1.32v7.99h3.64c-.22-.23-.4-.5-.52-.8Z"/>
    <path class="st0" d="M25.11,43.75h2.11v-.8h-1.58c-.12.3-.3.57-.52.8Z"/>
  </g>
  <polygon class="st0" points="28.09 4.11 28.09 25.55 28.09 46.99 38.38 43.75 38.38 25.55 38.38 7.35 28.09 4.11"/>
</svg>