<svg width="79" height="89" viewBox="0 0 79 89" fill="none" xmlns="http://www.w3.org/2000/svg">
<g id="Layer_1" clip-path="url(#clip0_19_6)">
<g id="Group">
<g id="Group_2">
<path id="Vector" d="M43.1598 29.15L32.0498 22.46V31.47L35.4798 33.48L15.0398 45.03L15.1398 54.5L43.1598 38.69V29.15Z" fill="#316FB7"/>
<path id="Vector_2" d="M21.4099 24.59V15.72L10.2999 8.94L2.92991 13.02L2.90991 61.37L10.2699 57.23V17.62L21.4099 24.59Z" fill="#316FB7"/>
</g>
<g id="Group_3">
<path id="Vector_3" d="M30.4098 0L23.0698 4.07L23.0598 38.71L30.4098 34.55V8.71L66.5798 31.45L36.7598 48.27L36.8998 57.76L74.5198 36.55V26.97L30.4098 0Z" fill="#316FB7"/>
<path id="Vector_4" d="M23.0498 65.43L30.4098 61.29L30.4198 47.68L23.0498 51.83V65.43Z" fill="#316FB7"/>
</g>
</g>
<g id="Group_4">
<path id="Vector_5" d="M7 88.38L3.02 75.4H2.92C3.06 78.04 3.13 79.8 3.13 80.68V88.37H0V71.83H4.77L8.68 84.48H8.75L12.9 71.83H17.67V88.37H14.4V80.54C14.4 80.17 14.4 79.74 14.42 79.26C14.43 78.78 14.48 77.5 14.57 75.41H14.47L10.21 88.36H7V88.38Z" fill="#316FB7"/>
<path id="Vector_6" d="M33.07 82.03C33.07 84.09 32.5301 85.7 31.4401 86.86C30.35 88.02 28.84 88.6 26.9 88.6C25.69 88.6 24.6101 88.33 23.6901 87.8C22.7601 87.27 22.05 86.5 21.55 85.51C21.05 84.51 20.8 83.35 20.8 82.03C20.8 79.96 21.34 78.36 22.42 77.21C23.5 76.06 25.01 75.49 26.97 75.49C28.18 75.49 29.26 75.75 30.18 76.28C31.1101 76.81 31.82 77.57 32.32 78.55C32.82 79.54 33.07 80.7 33.07 82.02V82.03ZM24.32 82.03C24.32 83.28 24.5301 84.23 24.9401 84.87C25.35 85.51 26.0201 85.83 26.9501 85.83C27.8801 85.83 28.5301 85.51 28.9401 84.87C29.34 84.23 29.5401 83.29 29.5401 82.03C29.5401 80.77 29.34 79.84 28.93 79.21C28.5201 78.58 27.85 78.27 26.93 78.27C26.01 78.27 25.35 78.58 24.9401 79.2C24.5301 79.82 24.33 80.76 24.33 82.02L24.32 82.03Z" fill="#316FB7"/>
<path id="Vector_7" d="M38.9301 88.38L34.1101 75.73H37.7201L40.1601 82.94C40.4301 83.85 40.6001 84.72 40.6701 85.53H40.7401C40.7801 84.81 40.9501 83.94 41.2501 82.94L43.6801 75.73H47.2901L42.4701 88.38H38.9301Z" fill="#316FB7"/>
<path id="Vector_8" d="M57.13 88.38L56.46 86.66H56.37C55.79 87.39 55.19 87.9 54.58 88.18C53.96 88.46 53.16 88.6 52.18 88.6C50.97 88.6 50.01 88.25 49.31 87.56C48.61 86.87 48.26 85.88 48.26 84.6C48.26 83.32 48.73 82.27 49.67 81.63C50.61 80.99 52.02 80.64 53.92 80.57L56.11 80.5V79.95C56.11 78.67 55.45 78.03 54.14 78.03C53.13 78.03 51.94 78.34 50.58 78.95L49.44 76.62C50.9 75.86 52.51 75.48 54.28 75.48C56.05 75.48 57.28 75.85 58.18 76.59C59.09 77.33 59.54 78.45 59.54 79.96V88.39H57.13V88.38ZM56.11 82.52L54.78 82.56C53.78 82.59 53.03 82.77 52.54 83.1C52.05 83.43 51.8 83.94 51.8 84.62C51.8 85.59 52.36 86.08 53.47 86.08C54.27 86.08 54.91 85.85 55.39 85.39C55.87 84.93 56.11 84.32 56.11 83.56V82.52Z" fill="#316FB7"/>
<path id="Vector_9" d="M68.2301 88.61C64.2901 88.61 62.3201 86.45 62.3201 82.13C62.3201 79.98 62.8601 78.34 63.9301 77.2C65.0001 76.07 66.5401 75.5 68.5301 75.5C69.9901 75.5 71.3101 75.79 72.4701 76.36L71.4501 79.03C70.9101 78.81 70.4001 78.63 69.9301 78.49C69.4601 78.35 68.9901 78.28 68.5301 78.28C66.7401 78.28 65.8401 79.55 65.8401 82.1C65.8401 84.65 66.7401 85.81 68.5301 85.81C69.1901 85.81 69.8101 85.72 70.3701 85.54C70.9401 85.36 71.5001 85.09 72.0701 84.71V87.66C71.5101 88.01 70.9501 88.26 70.3801 88.4C69.8101 88.54 69.0901 88.6 68.2201 88.6L68.2301 88.61Z" fill="#316FB7"/>
<path id="Vector_10" d="M74.8601 72.46C74.8601 71.34 75.4901 70.77 76.7401 70.77C77.9901 70.77 78.6201 71.33 78.6201 72.46C78.6201 73 78.4601 73.41 78.1501 73.71C77.8401 74.01 77.3701 74.16 76.7401 74.16C75.4901 74.16 74.8601 73.59 74.8601 72.46ZM78.4601 88.38H75.0101V75.73H78.4601V88.38Z" fill="#316FB7"/>
</g>
</g>
<defs>
<clipPath id="clip0_19_6">
<rect width="78.62" height="88.61" fill="white"/>
</clipPath>
</defs>
</svg>
