<?xml version="1.0" encoding="UTF-8"?>
<svg id="Layer_1" xmlns="http://www.w3.org/2000/svg" version="1.1" viewBox="0 0 50 50">
  <!-- Generator: Adobe Illustrator 29.8.2, SVG Export Plug-In . SVG Version: 2.1.1 Build 3)  -->
  <defs>
    <style>
      .st0 {
        fill: #fff;
      }
    </style>
  </defs>
  <path class="st0" d="M24.48,28.01c-1.05-2.13-.2-4.73,1.91-5.79l.71-.36.71-1.74c.65-1.56,1.67-2.89,2.94-3.89l-8.48-7.92c-.81-.76-2.07-.76-2.89,0l-13.87,12.95c-.65.61-.86,1.55-.54,2.37.32.82,1.11,1.37,1.99,1.37h2.13v7.55c0,1.79,1.43,3.24,3.2,3.24h15.34l.73-2.93c.21-.88.64-1.68,1.24-2.34l.45-.51c-2.07.95-4.55.08-5.58-2ZM19.75,26.08c0,.59-.48,1.08-1.07,1.08h-4.27c-.59,0-1.07-.49-1.07-1.08v-4.32c0-.59.48-1.08,1.07-1.08h4.27c.59,0,1.07.49,1.07,1.08v4.32Z"/>
  <path class="st0" d="M33.63,7.73c.85,0,1.66.34,2.26.95.6.61.94,1.43.94,2.29s-.34,1.68-.94,2.29c-.6.61-1.41.95-2.26.95s-1.66-.34-2.26-.95c-.6-.61-.94-1.43-.94-2.29s.34-1.68.94-2.29c.6-.61,1.41-.95,2.26-.95Z"/>
  <path class="st0" d="M39.25,21.25c-.07-.03-.13-.05-.19-.08l1.13,4.28c.37,1.42,0,2.94-.98,4.03l-4.72,5.2-1.47,5.94c-.29,1.15-1.45,1.86-2.59,1.57-1.14-.29-1.84-1.46-1.55-2.62l1.53-6.21c.13-.53.39-1,.75-1.4l3.3-3.64-1.29-4.42-.64,1.55c-.29.71-.83,1.3-1.52,1.65l-1.78.9c-1.05.53-2.33.1-2.86-.96-.53-1.07-.1-2.36.95-2.89l1.43-.72,1.02-2.48c1.14-2.77,3.82-4.58,6.8-4.58,1.52,0,3.02.32,4.41.94l.53.24c2.19.98,3.88,2.86,4.63,5.16l.17.53c.37,1.13-.23,2.35-1.35,2.73-1.11.38-2.33-.24-2.7-1.36l-.17-.53c-.38-1.15-1.22-2.08-2.31-2.58l-.53-.24h0Z"/>
  <path class="st0" d="M41.25,30.37l1.67,4.21,3.96,4.01c.83.84.83,2.21,0,3.05-.83.84-2.19.84-3.02,0l-4.12-4.16c-.31-.31-.55-.68-.71-1.09l-.97-2.44,2.71-2.99c.17-.18.32-.38.47-.58h0Z"/>
</svg>