<?xml version="1.0" encoding="UTF-8"?>
<svg id="Layer_1" xmlns="http://www.w3.org/2000/svg" version="1.1" viewBox="0 0 50 50">
  <!-- Generator: Adobe Illustrator 29.8.2, SVG Export Plug-In . SVG Version: 2.1.1 Build 3)  -->
  <defs>
    <style>
      .st0 {
        fill: #fff;
      }
    </style>
  </defs>
  <circle class="st0" cx="16.74" cy="15.5" r="3.56"/>
  <path class="st0" d="M33.15,33.78h-6.53l-2.79-4.58-2.21-5.31,2.84.7,2.04,3.33c.33.54.9.83,1.49.83.31,0,.62-.08.91-.26.82-.5,1.08-1.57.58-2.39l-2.41-3.94c-.24-.39-.62-.67-1.07-.78l-6.88-1.7s-.02,0-.03,0c0,0,0,0-.01,0-.02,0-.04,0-.05-.01,0,0,0,0,0,0-.02,0-.03,0-.05,0,0,0,0,0,0,0-.33-.05-.66,0-.96.13,0,0,0,0,0,0-.03.01-.07.03-.1.05,0,0,0,0-.01,0-.01,0-.02.01-.04.02,0,0,0,0-.01,0-.01,0-.03.02-.04.03,0,0,0,0,0,0-.01,0-.02.01-.04.02,0,0,0,0-.01,0-.01,0-.02.01-.03.02,0,0,0,0-.01,0-.01,0-.03.02-.04.03,0,0,0,0,0,0-.01,0-.02.02-.04.03,0,0,0,0,0,0-.13.1-.24.22-.34.36l-2.97,4.09h-4.87c-.96,0-1.74.78-1.74,1.74s.78,1.74,1.74,1.74h5.76c.56,0,1.08-.27,1.41-.72l1.69-2.32,1.94,4.68-4.19,4.19c-.33.33-.51.77-.51,1.23v6.75c0,.96.78,1.74,1.74,1.74s1.74-.78,1.74-1.74v-6.03l2.94-2.94,2.21,3.63c.32.52.88.84,1.49.84h7.51c.96,0,1.74-.78,1.74-1.74s-.78-1.74-1.74-1.74Z"/>
  <g>
    <path class="st0" d="M20.67,13.61v-5.48h8.57v-.8h-9.37v5.13c.33.34.6.73.8,1.14Z"/>
    <path class="st0" d="M20.67,17.39c-.2.42-.47.8-.8,1.14v.52l.8.2v-1.86Z"/>
    <polygon class="st0" points="20.67 35.19 19.87 35.99 19.87 43.52 29.24 43.52 29.24 42.72 20.67 42.72 20.67 35.19"/>
  </g>
  <polygon class="st0" points="30.11 4.11 30.11 25.43 30.11 46.74 40.34 43.52 40.34 25.43 40.34 7.33 30.11 4.11"/>
</svg>