<svg width="31" height="31" viewBox="0 0 31 31" fill="none" xmlns="http://www.w3.org/2000/svg">
<g clip-path="url(#clip0_34_2)">
<path d="M15.07 0C6.76 0 0 6.76 0 15.07C0 23.38 6.76 30.14 15.07 30.14C23.38 30.14 30.14 23.38 30.14 15.07C30.14 6.76 23.38 0 15.07 0ZM16.51 27.36V25.42H13.64V27.36C11.36 27.1 9.21 26.2 7.4 24.77L8.77 23.4L6.74 21.37L5.37 22.74C3.94 20.93 3.05 18.79 2.78 16.5H4.72V13.63H2.78C2.96 12.1 3.42 10.63 4.14 9.28L21.39 23.38L21.37 23.4L22.74 24.77C20.93 26.2 18.79 27.09 16.5 27.36H16.51ZM26 20.86L8.75 6.76L8.77 6.74L7.4 5.37C9.21 3.94 11.35 3.05 13.64 2.78V4.72H16.51V2.78C18.79 3.04 20.94 3.94 22.75 5.37L21.38 6.74L23.41 8.77L24.78 7.4C26.21 9.21 27.1 11.35 27.37 13.64H25.43V16.51H27.37C27.19 18.04 26.73 19.51 26.01 20.86H26Z" fill="white"/>
</g>
<defs>
<clipPath id="clip0_34_2">
<rect width="30.15" height="30.15" fill="white"/>
</clipPath>
</defs>
</svg>
