<svg width="93" height="94" viewBox="0 0 93 94" fill="none" xmlns="http://www.w3.org/2000/svg">
<g clip-path="url(#clip0_19_88)">
<path d="M70.44 39.56C69.62 39.56 68.81 39.57 67.99 39.57C68.26 40.46 68.5 41.36 68.68 42.27C69.24 41.98 69.81 41.71 70.37 41.44C71.66 40.8 72.94 40.19 74.18 39.54C72.93 39.54 71.69 39.55 70.44 39.57V39.56ZM72.61 49.93C71.57 50.11 70.45 50.3 69.27 50.43C69.23 51.2 69.17 51.95 69.06 52.71C69.61 53.09 69.8 53.6 69.88 53.84C69.98 54.19 70.13 55.12 69.27 56.02C68.93 56.37 68.57 56.7 68.2 57.01C68.03 57.64 67.85 58.25 67.63 58.85C68.58 59.07 69.1 59.72 69.27 60.35C69.49 61.14 69.28 62.27 68.02 63.05C67.24 63.52 66.3 63.86 65.33 64.03C59.95 73.69 49.62 80.22 37.78 80.22C20.35 80.22 6.24 66.1 6.24 48.68C6.24 31.26 20.36 17.14 37.78 17.14C49.85 17.14 60.34 23.93 65.65 33.9C66.84 33.47 68.15 33.25 69.49 33.23C70.4 33.22 71.33 33.22 72.24 33.2C66.35 20.05 53.13 10.89 37.78 10.89C16.92 10.88 0 27.81 0 48.67C0 60.64 5.57 71.28 14.23 78.2C16.47 80 18.92 81.55 21.53 82.78C26.46 85.14 31.97 86.46 37.78 86.46C43.59 86.46 49.11 85.14 54.03 82.78C56.64 81.56 59.09 80 61.33 78.2C69.79 71.45 75.29 61.15 75.55 49.54C74.56 49.64 73.58 49.77 72.61 49.93Z" fill="#316FB7"/>
<path d="M20.5699 84.33L15.9799 91.68C15.1499 93 13.7499 93.71 12.3199 93.71C11.5399 93.71 10.7399 93.5 10.0399 93.06C8.02992 91.8 7.40992 89.14 8.67992 87.12L13.2699 79.76C15.5599 81.6 18.0099 83.14 20.5699 84.33Z" fill="#316FB7"/>
<path d="M65.54 93.06C64.84 93.5 64.04 93.71 63.25 93.71C61.83 93.71 60.43 92.99 59.6 91.68L55.03 84.34C57.58 83.12 60.03 81.58 62.31 79.75L66.9 87.11C68.15 89.13 67.55 91.79 65.54 93.05V93.06Z" fill="#316FB7"/>
<path d="M28.8599 7.95001L3.90993 22.72C0.339932 16.67 1.66993 9.08002 6.70993 4.57001C6.64993 4.49001 6.58993 4.41001 6.53993 4.33001C5.72993 2.96001 6.18993 1.20001 7.55993 0.390014C8.91993 -0.419986 10.6899 0.0300143 11.4999 1.39001C11.5499 1.47001 11.5899 1.56001 11.6299 1.65001C18.0199 -0.589986 25.2899 1.91001 28.8599 7.93001V7.95001Z" fill="#316FB7"/>
<path d="M71.4301 22.9L46.8401 7.57002C50.5501 1.61002 57.8901 -0.719976 64.2301 1.69002C64.2601 1.60002 64.3101 1.51002 64.3601 1.43002C65.2101 0.0700238 66.9801 -0.329976 68.3201 0.500024C69.6601 1.35002 70.0801 3.12002 69.2301 4.46002L69.0701 4.70002C74.0001 9.34002 75.1301 16.95 71.4301 22.89V22.9Z" fill="#316FB7"/>
<path d="M35.26 49.89C35.26 51.25 36.37 52.35 37.73 52.35C39.09 52.35 40.2 51.25 40.2 49.89V31.31C40.2 29.95 39.09 28.85 37.73 28.85C36.37 28.85 35.26 29.95 35.26 31.31V49.89Z" fill="#286FB7"/>
<path d="M29.5465 40.2729C28.7765 39.6829 27.4865 40.0829 26.6565 41.1529C25.8265 42.2329 25.7765 43.5929 26.5465 44.1829L37.0265 52.2329C37.7965 52.8229 39.0965 52.4229 39.9165 51.3429C40.7465 50.2629 40.7965 48.9029 40.0265 48.3229L29.5365 40.2729H29.5465Z" fill="#316FB7"/>
<path d="M25 38.72C21.58 38.72 18.16 36.91 16.22 34.06C15.68 33.27 15.89 32.2 16.68 31.67C17.47 31.14 18.54 31.34 19.07 32.13C20.42 34.12 22.83 35.32 25.2 35.28C26.66 35.23 28.7 34.67 30.13 32.23C30.61 31.41 31.67 31.13 32.49 31.62C33.31 32.1 33.58 33.16 33.1 33.98C31.36 36.93 28.6 38.62 25.31 38.73C25.21 38.73 25.1 38.73 25 38.73V38.72Z" fill="#316FB7"/>
<path d="M50.9599 38.72C47.5399 38.72 44.1199 36.91 42.1799 34.06C41.6399 33.27 41.8499 32.2 42.6399 31.67C43.4299 31.14 44.4999 31.34 45.0299 32.13C46.3799 34.12 48.7899 35.32 51.1599 35.28C52.6199 35.23 54.6599 34.67 56.0899 32.23C56.5699 31.41 57.6299 31.13 58.4499 31.62C59.2699 32.1 59.5399 33.16 59.0599 33.98C57.3199 36.93 54.5599 38.62 51.2699 38.73C51.1699 38.73 51.0599 38.73 50.9599 38.73V38.72Z" fill="#316FB7"/>
<path d="M39.88 65.1C39.88 65.28 39.89 65.48 39.91 65.66C39.62 65.07 39.45 64.41 39.45 63.68C39.45 61.37 41.14 59.51 43.2 59.51C43.28 59.51 43.37 59.51 43.45 59.52C41.36 60.38 39.88 62.56 39.88 65.1Z" fill="#316FB7"/>
<path d="M46.98 63.68C46.98 65.97 45.29 67.83 43.21 67.83C42.99 67.83 42.78 67.81 42.58 67.76C42.05 67.04 41.72 66.11 41.72 65.11C41.72 62.8 43.41 60.95 45.47 60.95C45.69 60.95 45.9 60.97 46.11 61.02C46.66 61.74 46.99 62.67 46.99 63.69L46.98 63.68Z" fill="#316FB7"/>
<path d="M91.72 45.88C90.35 46.74 88.62 47.13 87.01 47.14C82.12 47.18 77.15 47.34 72.32 48.13C69.43 48.61 66.59 49.01 63.66 48.87C62.36 48.8 62.24 48.11 63.27 47.41C68.7 43.7 75.28 41.76 80.47 37.71C75.38 37.64 70.29 37.74 65.19 37.76C63.89 37.76 63.77 36.96 64.8 36.3C66.17 35.44 67.91 35.05 69.51 35.04C75.32 35.03 81.12 34.89 86.94 35.04C87.61 35.06 88.62 35.42 87.79 36.15C82.79 40.62 76.45 42.77 70.77 46.1C73.94 45.86 77.13 45.1 80.29 44.86C83.97 44.58 87.65 44.45 91.34 44.43C92.65 44.42 92.76 45.23 91.73 45.88H91.72Z" fill="#316FB7"/>
<path d="M67.95 54.76C65.45 57.3 62.15 58.71 59.13 60.5C61.68 60.7 64.27 60.56 66.82 60.55C67.68 60.55 67.76 61.07 67.07 61.49C66.15 62.05 64.99 62.33 63.93 62.33C60.73 62.33 57.54 62.48 54.35 62.1C53.58 62.01 54.18 61.41 54.49 61.21C57.4 59.27 60.81 57.99 63.4 55.64C60.93 55.2 58.39 55.59 55.89 55.64C55.02 55.64 54.95 55.12 55.64 54.69C56.56 54.13 57.71 53.86 58.78 53.85C61.8 53.8 64.8 53.36 67.77 54.08C68.21 54.19 68.25 54.45 67.95 54.76Z" fill="#316FB7"/>
</g>
<defs>
<clipPath id="clip0_19_88">
<rect width="92.41" height="93.71" fill="white"/>
</clipPath>
</defs>
</svg>
