<svg width="58" height="53" viewBox="0 0 58 53" fill="none" xmlns="http://www.w3.org/2000/svg">
<g id="Layer_1" clip-path="url(#clip0_19_147)">
<g id="Group">
<path id="Vector" d="M32.21 23.33L23.32 17.98V25.18L26.07 26.8L9.71002 36.03L9.79002 43.61L32.21 30.96V23.33Z" fill="white"/>
<path id="Vector_2" d="M14.8 19.68V12.58L5.91 7.15002L0.02 10.42L0 49.11L5.89 45.8V14.1L14.8 19.68Z" fill="white"/>
</g>
<g id="Group_2">
<path id="Vector_3" d="M22.01 0L16.13 3.26L16.12 30.98L22.01 27.65V6.97L50.95 25.17L27.09 38.63L27.2 46.22L57.3 29.25V21.58L22.01 0Z" fill="white"/>
<path id="Vector_4" d="M16.12 52.36L22.01 49.05V38.16L16.12 41.48V52.36Z" fill="white"/>
</g>
</g>
<defs>
<clipPath id="clip0_19_147">
<rect width="57.3" height="52.36" fill="white"/>
</clipPath>
</defs>
</svg>
